<?xml version="1.0" encoding="utf-8"?>
<!-- Generator: Adobe Illustrator 23.0.2, SVG Export Plug-In . SVG Version: 6.00 Build 0)  -->
<svg version="1.1" id="Capa_1" xmlns="http://www.w3.org/2000/svg" xmlns:xlink="http://www.w3.org/1999/xlink" x="0px" y="0px"
	 viewBox="0 0 55.8 67.8" style="enable-background:new 0 0 55.8 67.8;" xml:space="preserve">
<style type="text/css">
	.st0{fill:#DC7E27;}
</style>
<g>
	
		<image style="overflow:visible;opacity:0.75;" width="305" height="355" xlink:href="BAA78FD5.png"  transform="matrix(0.24 0 0 0.24 -7.3189 -7.3252)">
	</image>
	<g>
		<g>
			<path class="st0" d="M32.4,30.3c0.6-0.2,1-0.2,1.2,0.5c0.5,1.4,1.3,2.4,2.4,3.3c0.7,0.5,0.9,1.2,0.2,1.8C33.4,38,33.5,40.9,34,44
				c0.7,3.9,1,7.7,2.4,11.5c0.8,2.3,1.1,4.8,0.8,7.3c-0.2,2.4-1.4,3.6-3.7,4.4c-2.4,0.8-4.8,0.7-7.2,0.5c-2.7-0.2-4.5-2.1-4.7-4.9
				c-0.2-2,0.1-4,0.3-5.9c0.6-5.7,0.9-11.4,0.9-17.1c0-1,0-1.9,1.5-1.8c-0.6-0.2-1.3-0.4-1.9-0.6c-1.2-0.4-1.7-1.4-1-2.5
				c0.7-1.2,1-2.6,1.6-3.8c0.3-0.6-0.3-1.2-0.3-1.8c0-3.1-0.6-6.1-1.6-9c-0.7-2-0.3-2.9,1.7-3.7c3.3-1.3,6.7-1.5,9.9,0.2
				c1.3,0.7,1.9,1.7,1.5,3.3c-0.6,2.6-0.6,5.2-0.7,7.9C33.4,28.8,33.4,29.7,32.4,30.3z"/>
			<path class="st0" d="M32.3,13.1c-3.9,0-7.8-0.1-11.6,0c-5.9,0.2-11.7,0.6-17.2,3c-1.1,0.5-2.1,1.1-2.2,2.4
				c-0.1,1.4,0.8,2.2,1.9,2.8c3.8,2,7.9,3,12.1,3.6c1.9,0.3,3.8,0.4,5.6,0.6c0.4,0,0.9,0,0.9,0.5c0,0.7-0.6,0.6-1,0.5
				c-4.4-0.2-8.8-0.7-13.1-2.2c-1.6-0.5-3.2-1-4.7-1.8c-3.9-2-3.8-6-1.3-8.7c1.3-1.4,3-2.5,4.6-3.5c5.7-3.6,11.5-6.9,17.7-9.5
				c2.6-1.1,5.2-1,7.8,0.1C38.2,3.5,44.2,6.6,50,10c1.7,1,3.4,2,4.5,3.6c2.2,3,1.5,6.2-1.7,8.1c-4.1,2.4-8.7,3-13.3,3.7
				c-1.5,0.2-3.1,0.4-4.6,0.6c-0.4,0-0.9,0.1-1-0.4c-0.1-0.5,0.5-0.6,0.8-0.6c3.3-0.5,6.7-1,10-1.5c2.8-0.5,5.5-1.3,7.9-3
				c1.2-0.8,1.9-1.9,2-3.3c0.1-2.1-0.7-3.1-2.7-3.4C45.5,12.8,38.9,13.1,32.3,13.1z M21.4,10.1c1.6,0,3-0.8,3-1.5
				c0-0.8-1.4-1.7-2.5-1.7c-1,0-2,1.1-1.9,2.1C20.1,9.9,20.7,10,21.4,10.1z M7.1,13.2c1.4-0.1,2.2-1,3.2-1.8c0.3-0.3,0.6-0.6,0.4-1
				C10.5,9.9,10,9.8,9.6,9.9c-1.4,0.2-2.5,1-3.2,2.1C5.9,12.8,6.3,13.2,7.1,13.2z"/>
		</g>
	</g>
</g>
</svg>
