<svg id="Capa_1" enable-background="new 0 0 511.968 511.968" height="512" viewBox="0 0 511.968 511.968" width="512" xmlns="http://www.w3.org/2000/svg"><g><path d="m491.18 296.818-60.601-39.06c-19.193-12.37-43.998-12.37-63.191 0l-49.847 32.129c-.269-12.365-.215-31.427-.192-43.971 25.808-.73 50.53-11.614 68.496-30.172 3.69.625 7.391.953 11.07.953 15.165 0 29.94-5.237 41.872-15.085 15.21-12.553 23.933-31.059 23.933-50.774 0-22.487-11.292-43.181-30.206-55.357l-121.343-78.12c-35.954-23.148-82.421-23.148-118.375 0l-49.106 31.615c-3.483 2.242-4.489 6.883-2.246 10.366 2.242 3.483 6.885 4.489 10.365 2.246l49.106-31.614c31.023-19.973 71.113-19.973 102.137 0l121.343 78.12c14.605 9.403 23.325 25.382 23.325 42.745 0 15.222-6.736 29.512-18.48 39.206-11.757 9.704-27.084 13.61-42.06 10.719-17.004-3.285-34.349-5.98-51.554-8.013-4.11-.482-7.843 2.455-8.328 6.568-.486 4.114 2.455 7.842 6.568 8.328 11.116 1.313 22.291 2.915 33.391 4.773-14.844 11.888-33.478 18.539-52.686 18.539-5.274 0-125.072 0-125.176 0-19.28 0-37.847-6.633-52.678-18.525 53.698-8.99 108.337-11.695 162.685-7.994 4.139.283 7.711-2.84 7.992-6.973s-2.84-7.711-6.973-7.993c-61.415-4.182-123.2-.384-183.636 11.289-14.972 2.892-30.301-1.015-42.06-10.719-11.744-9.693-18.48-23.983-18.48-39.206 0-17.363 8.72-33.342 23.325-42.745l42.718-27.501c3.483-2.242 4.489-6.883 2.247-10.366-2.243-3.482-6.884-4.488-10.366-2.246l-42.715 27.501c-18.914 12.176-30.206 32.871-30.206 55.357 0 19.715 8.723 38.221 23.933 50.774 11.933 9.849 26.706 15.085 41.872 15.085 3.679 0 7.383-.328 11.074-.953 17.981 18.58 42.58 29.441 68.47 30.173.146 21.558.061 44.965-.792 67.119l-11.454-7.431c-3.475-2.254-8.119-1.266-10.374 2.21-2.254 3.475-1.265 8.119 2.21 10.374l23.375 15.166c5.9 3.828 9.423 10.341 9.423 17.422 0 6.246-2.749 12.094-7.542 16.043-4.722 3.892-10.866 5.455-16.849 4.291-42.437-8.266-87.619-8.531-131.219 0-5.984 1.165-12.127-.398-16.849-4.291-4.793-3.95-7.542-9.797-7.542-16.043 0-7.081 3.522-13.594 9.423-17.422l58.213-37.768c13.585-8.814 31.141-8.815 44.729.001l5.46 3.542c3.474 2.252 8.119 1.264 10.373-2.211s1.265-8.12-2.211-10.374l-5.459-3.541c-18.545-12.032-42.512-12.032-61.057 0l-58.212 37.766c-10.181 6.605-16.259 17.822-16.259 30.006 0 10.743 4.739 20.81 13.002 27.619 8.191 6.75 18.854 9.461 29.254 7.438 8.928-1.738 17.885-3.08 26.855-4.072l-.345 11.962c-.315 26.249-6.21 56.067-11.56 81.548-4.075 17.576 10.81 37.016 29.88 36.687h35.828c18.19.495 33.797-17.945 29.892-36.623-5.28-25.58-11.042-54.387-11.49-80.919l-.39-12.651c8.958.992 17.902 2.333 26.819 4.068 3.325.398 3.445.814 9.287.559-2.147 22.668-4.925 45.463-8.279 67.908-2.803 14.189.84 28.735 10.007 39.937 9.217 11.262 22.853 17.721 37.409 17.721h63.664c14.537 0 28.16-6.444 37.376-17.681 9.49-11.186 12.933-27.679 9.686-42.419-4.283-29.055-7.582-58.591-9.837-87.965 4.114.634 8.355.576 12.558-.237 8.771-1.696 17.569-3.032 26.38-4.042l-.632 21.819c-.277 9.599-.946 19.312-1.988 28.868-.448 4.118 2.525 7.82 6.644 8.269.276.03.55.044.821.044 3.778 0 7.028-2.847 7.447-6.688 1.084-9.95 1.78-20.063 2.07-30.059l.686-23.656c15.969-1.122 31.967-1.122 47.936.001l.759 24.458c.647 20.852 3.043 41.797 7.119 62.255l6.029 30.254c1.07 5.374-.309 10.886-3.783 15.121-3.471 4.23-8.598 6.656-14.066 6.656h-40.072c-5.477 0-10.608-2.432-14.079-6.672-3.475-4.245-4.846-9.764-3.762-15.143l5.609-27.841c.817-4.061-1.811-8.016-5.871-8.833-4.059-.824-8.016 1.81-8.834 5.871l-5.609 27.84c-1.976 9.806.524 19.869 6.859 27.608 6.331 7.734 15.693 12.17 25.687 12.17h40.072c9.979 0 19.332-4.425 25.663-12.142 6.335-7.722 8.849-17.769 6.897-27.566l-6.029-30.255c-3.915-19.647-6.216-39.763-6.838-59.789l-.701-22.589c8.804 1.01 17.594 2.345 26.357 4.04 2.331.451 4.673.672 6.999.672 8.431 0 16.646-2.912 23.282-8.388 8.474-6.992 13.333-17.304 13.333-28.292-.001-12.521-6.283-24.046-16.805-30.829zm-360.873 98.061c.388 26.822 6.363 57.306 11.768 83.369 1.808 7.921-4.822 18.918-15.177 18.71h-35.828c-8.833.092-16.942-8.441-15.17-18.743 5.616-26.683 11.417-56.37 11.845-84.061l.395-13.709c13.901-.891 27.822-.891 41.722.002zm185.731 59.164c2.371 9.752.712 22.27-6.443 30.722-6.355 7.749-15.752 12.193-25.778 12.193h-63.664c-10.04 0-19.444-4.455-25.801-12.221-6.35-7.758-8.854-17.841-6.873-27.665.025-.124.047-.249.065-.374 3.717-24.845 6.727-50.112 8.975-75.173 1.551-.923 3.046-1.962 4.463-3.13 8.263-6.81 13.002-16.876 13.002-27.619 0-11.059-5.021-21.309-13.559-28.05 1.13-24.248 1.365-51.945 1.171-76.768h100.753c-.041 17.05-.083 36.285.406 53.878-8.069 6.915-12.771 16.987-12.771 27.812 0 10.988 4.859 21.3 13.333 28.292.723.596 1.47 1.151 2.228 1.685 2.28 32.16 5.798 64.576 10.493 96.418zm169.066-109.672c-5.001 4.126-11.521 5.789-17.887 4.558-45.275-8.754-91.189-8.754-136.467 0-6.369 1.231-12.885-.431-17.887-4.558-5.008-4.132-7.88-10.228-7.88-16.723-.15-6.393 3.838-14.326 9.931-18.222l60.601-39.06c14.255-9.189 32.681-9.189 46.938 0l60.601 39.06c6.219 4.008 9.931 10.82 9.931 18.222-.001 6.496-2.873 12.591-7.881 16.723z"/></g></svg>