<svg id="Capa_1" enable-background="new 0 0 511.965 511.965" height="512" viewBox="0 0 511.965 511.965" width="512" xmlns="http://www.w3.org/2000/svg"><g><path d="m496.746 29.184c-20.266-20.254-53.23-20.251-73.485.002l-76.805 76.806c-10.761-5.112-24.043-3.226-32.934 5.666-5.472 5.471-8.485 12.745-8.485 20.482 0 4.385.97 8.62 2.804 12.463l-76.791 76.791c-13.354 13.355-18.32 32.831-13.285 50.787l-7.468 7.469c-4.808 4.807-7.455 11.197-7.455 17.995s2.647 13.188 7.454 17.995 11.197 7.454 17.995 7.454c6.797 0 13.188-2.647 17.994-7.454l7.469-7.469c17.954 5.037 37.432.069 50.788-13.285l76.79-76.791c3.843 1.834 8.078 2.804 12.463 2.804 7.737 0 15.012-3.013 20.483-8.484 8.892-8.893 10.777-22.175 5.666-32.936l40.406-40.406c2.929-2.929 2.929-7.678 0-10.606-2.93-2.929-7.678-2.929-10.607 0l-39.223 39.224-52.274-52.273 75.624-75.624c14.408-14.408 37.859-14.405 52.273 0 6.979 6.979 10.823 16.262 10.823 26.137s-3.844 19.157-10.824 26.137l-15.189 15.19c-2.929 2.929-2.929 7.678 0 10.606 2.93 2.93 7.678 2.929 10.607 0l15.188-15.189c9.813-9.812 15.218-22.861 15.218-36.744-.001-13.884-5.406-26.933-15.22-36.747zm-202.813 255.094c-10.342 10.344-25.851 13.609-39.508 8.325-2.766-1.072-5.909-.41-8.011 1.691l-10.738 10.739c-1.973 1.973-4.597 3.06-7.388 3.06-2.79 0-5.414-1.087-7.388-3.061-1.974-1.973-3.061-4.597-3.061-7.388s1.087-5.414 3.062-7.388l10.738-10.739c2.1-2.1 2.763-5.241 1.69-8.011-5.286-13.656-2.019-29.163 8.325-39.507l75.621-75.622 52.278 52.278zm109.738-82.471c-2.639 2.638-6.146 4.091-9.877 4.091-3.728 0-7.233-1.451-9.87-4.086l-59.797-59.797c-2.638-2.638-4.091-6.145-4.091-9.875s1.453-7.238 4.092-9.876c2.723-2.723 6.299-4.084 9.875-4.084 3.553 0 7.104 1.347 9.819 4.034l59.903 59.903c5.387 5.45 5.37 14.264-.054 19.69z"/><path d="m224.277 394.355c.154 0 .311-.001.465-.004 12.399-.212 25.042-8.918 25.216-25.116l.003-.506c0-15.839-8.631-30.426-22.524-38.068-2.325-1.279-5.155-1.232-7.439.121-13.142 7.793-21.306 22.112-21.306 37.368 0 .663.016 1.323.045 1.981.719 15.978 13.312 24.224 25.54 24.224zm-.305-48.074c6.868 5.34 10.988 13.596 10.988 22.448l-.002.313c-.08 7.479-5.692 10.229-10.474 10.311-4.781.051-10.43-2.463-10.765-9.896-.02-.434-.029-.87-.029-1.308.001-8.475 3.854-16.51 10.282-21.868z"/><path d="m349.864 406.649h-163.627v-244.872c6.548 1.159 13.139 1.743 19.703 1.743 29.716 0 58.813-11.676 80.288-33.151 28.504-28.504 39.743-70.433 29.332-109.424-.692-2.593-2.718-4.619-5.312-5.311-38.987-10.41-80.919.827-109.425 29.332-28.255 28.256-39.533 69.701-29.587 108.402v253.282h-23.1v-170.795c9.953-38.705-1.324-80.157-29.583-108.417-28.504-28.505-70.435-39.745-109.423-29.332-2.594.692-4.619 2.718-5.312 5.311-10.411 38.991.828 80.92 29.332 109.424 21.477 21.476 50.569 33.151 80.288 33.151 6.561 0 13.152-.584 19.699-1.742v45.712c-3.929-3.822-8.504-7.025-13.599-9.405-16.07-7.505-35.098-5.855-49.657 4.307-2.201 1.536-3.413 4.132-3.179 6.806 1.553 17.688 12.5 33.337 28.57 40.843 6.686 3.123 13.88 4.66 21.055 4.66 5.707 0 11.4-.976 16.81-2.9v72.376h-62.153c-4.143 0-7.5 3.358-7.5 7.5v50.61c0 19.514 15.871 35.39 35.38 35.39h15.63c4.143 0 7.5-3.358 7.5-7.5s-3.357-7.5-7.5-7.5h-15.63c-11.237 0-20.38-9.147-20.38-20.39v-43.11h263.88v43.11c0 11.243-9.143 20.39-20.38 20.39h-177.49c-4.143 0-7.5 3.358-7.5 7.5s3.357 7.5 7.5 7.5h177.49c19.509 0 35.38-15.876 35.38-35.39v-50.61c0-4.142-3.357-7.5-7.5-7.5zm-138.433-351.077c23.691-23.692 58.076-33.637 90.675-26.485 7.15 32.595-2.793 66.983-26.485 90.675-21.505 21.505-51.822 31.68-81.612 28.029l21.538-21.538h35.812c4.143 0 7.5-3.358 7.5-7.5s-3.357-7.5-7.5-7.5h-20.812l18.68-18.68h35.812c4.143 0 7.5-3.358 7.5-7.5s-3.357-7.5-7.5-7.5h-20.812l18.043-18.043c2.929-2.929 2.929-7.678 0-10.606-2.93-2.929-7.678-2.929-10.607 0l-18.043 18.042v-20.811c0-4.142-3.357-7.5-7.5-7.5s-7.5 3.358-7.5 7.5v35.811l-18.68 18.68v-20.811c0-4.142-3.357-7.5-7.5-7.5s-7.5 3.358-7.5 7.5v35.811l-21.538 21.538c-3.651-29.79 6.524-60.106 28.029-81.612zm-109.81 263.35c-9.861-4.605-16.964-13.601-19.288-24.097 9.542-4.956 20.997-5.283 30.858-.677s16.964 13.601 19.288 24.097c-9.542 4.956-20.997 5.283-30.858.677zm-57.863-116.687c-23.692-23.692-33.636-58.08-26.485-90.675 32.599-7.152 66.983 2.792 90.675 26.485 21.507 21.507 31.682 51.826 28.028 81.618l-21.537-21.537v-35.818c0-4.142-3.357-7.5-7.5-7.5s-7.5 3.358-7.5 7.5v20.818l-18.68-18.68v-35.818c0-4.142-3.357-7.5-7.5-7.5s-7.5 3.358-7.5 7.5v20.818l-18.046-18.046c-2.929-2.929-7.678-2.93-10.606-.001-2.93 2.929-2.93 7.678-.001 10.607l18.04 18.04h-20.805c-4.143 0-7.5 3.358-7.5 7.5s3.357 7.5 7.5 7.5h35.805l18.68 18.68h-20.806c-4.143 0-7.5 3.358-7.5 7.5s3.357 7.5 7.5 7.5h35.805l21.539 21.539c-29.787 3.651-60.102-6.526-81.606-28.03z"/></g></svg>