<?xml version="1.0" encoding="utf-8"?>
<!-- Generator: Adobe Illustrator 23.0.2, SVG Export Plug-In . SVG Version: 6.00 Build 0)  -->
<svg version="1.1" id="Capa_1" xmlns="http://www.w3.org/2000/svg" xmlns:xlink="http://www.w3.org/1999/xlink" x="0px" y="0px"
	 viewBox="0 0 737.3 209.3" style="enable-background:new 0 0 737.3 209.3;" xml:space="preserve">
<style type="text/css">
	.st0{fill:#FFFFFF;}
</style>
<g>
	<path class="st0" d="M182.27,148.24c1.8,0.39,2.7,1.29,2.7,2.7c-1.85,3.36-4.11,6.08-6.79,8.18c-2.68,2.09-5.21,3.48-7.59,4.16
		c-2.38,0.68-4.84,1.02-7.37,1.02c-5.74,0-10.56-2.19-14.45-6.57c-3.89-4.38-5.84-10.75-5.84-19.13c0-9.34,2.41-17.3,7.23-23.87
		c2.38-3.16,5.44-5.68,9.16-7.56c3.72-1.87,8.03-2.81,12.92-2.81c4.89,0,8.61,1.3,11.17,3.91c2.55,2.6,3.83,5.67,3.83,9.2
		c0,3.53-0.97,6.4-2.92,8.61c-1.95,2.21-4.48,3.32-7.59,3.32c-1.07,0-2.31-0.19-3.72-0.58c1.02-1.27,1.92-3.07,2.7-5.4
		s1.17-4.55,1.17-6.64c0-2.09-0.49-3.8-1.46-5.11c-0.97-1.31-2.51-1.97-4.6-1.97c-3.21,0-6.11,1.49-8.69,4.45
		c-2.58,2.97-4.5,6.62-5.77,10.95c-1.27,4.33-1.9,8.81-1.9,13.43c0,6.23,1.22,10.95,3.65,14.16s5.55,4.82,9.34,4.82
		c2.38,0,4.87-0.8,7.45-2.41C177.47,153.5,179.93,151.21,182.27,148.24z"/>
	<path class="st0" d="M218.48,121.09c1.46-0.1,2.48-0.15,3.07-0.15c2.53,0,4.45,0.46,5.77,1.39c1.31,0.92,1.97,2.63,1.97,5.11
		c0,0.78-0.46,4.2-1.39,10.26c-0.93,6.06-1.39,11.25-1.39,15.59c0,4.33,0.46,8.15,1.39,11.46c-3.65-1.17-6.18-2.82-7.59-4.96
		c-1.41-2.14-2.12-4.79-2.12-7.96c0-1.22,0.27-3.97,0.8-8.25c-1.51,5.55-3.81,10.21-6.9,13.98c-3.09,3.77-6,5.66-8.72,5.66
		c-5.6,0-8.4-4.04-8.4-12.12c0-2.68,0.4-6.41,1.21-11.21c0.8-4.79,1.2-8.43,1.2-10.91c0-2.48-0.34-4.99-1.02-7.52
		c4.04,0,6.97,0.52,8.8,1.57c1.83,1.05,2.74,3.13,2.74,6.24c0,1.66-0.51,4.94-1.53,9.86c-1.02,4.92-1.53,8.61-1.53,11.1
		c0,3.6,0.97,5.4,2.92,5.4c0.97,0,2.09-0.67,3.36-2.01c1.26-1.34,2.48-3.11,3.65-5.33c1.17-2.21,2.15-4.99,2.96-8.32
		c0.8-3.33,1.2-6.72,1.2-10.15C218.91,126.38,218.77,123.47,218.48,121.09z"/>
	<path class="st0" d="M239.13,158.57c-0.15-0.9-0.22-2.3-0.22-4.2s0.81-9.37,2.45-22.41c1.63-13.04,2.45-22,2.45-26.86
		c0-4.87-0.29-8.03-0.88-9.49c3.65,0.97,6.14,2.45,7.48,4.42c1.34,1.97,2.01,4.76,2.01,8.36c0,2.14-0.71,9.1-2.12,20.88
		c-1.41,11.78-2.12,21.27-2.12,28.47c0,1.56,0.1,3.75,0.29,6.57c-4.43-0.19-7.18-1.17-8.25-2.92
		C239.65,160.41,239.28,159.47,239.13,158.57z"/>
	<path class="st0" d="M276,128.9c-0.24,1.75-0.76,4.79-1.53,9.13c-1.66,9.2-2.48,16.01-2.48,20.44c0,4.43,0.34,7.4,1.02,8.91
		c-3.75-0.97-6.33-2.47-7.74-4.49c-1.41-2.02-2.12-4.88-2.12-8.58c0-3.26,0.51-7.73,1.53-13.4c1.02-5.67,1.68-9.5,1.97-11.5
		c-2.53,0.44-5.23,1.29-8.1,2.55c-0.1-1.07-0.15-1.87-0.15-2.41c0-2.58,0.78-4.34,2.34-5.29s3.8-1.45,6.72-1.5
		c0.34-3.65,0.51-6.28,0.51-7.88c0-1.61-0.01-2.94-0.04-4.01c-0.02-1.07-0.04-1.87-0.04-2.41c3.21,0.34,5.55,1.3,7.01,2.88
		c1.46,1.58,2.19,3.83,2.19,6.75c0,1.17-0.12,2.8-0.37,4.89c4.09-0.1,7.08-0.9,8.98-2.41c0.1,0.97,0.15,1.7,0.15,2.19
		c0,2.34-0.41,3.96-1.24,4.85c-0.83,0.9-2.21,1.35-4.16,1.35S277.02,128.95,276,128.9z"/>
	<path class="st0" d="M301,138.42c-1.19,6.93-1.8,12.65-1.83,17.15c-0.03,4.5,0.26,7.41,0.84,8.72c-3.8-0.97-6.35-2.45-7.67-4.42
		c-1.31-1.97-1.97-4.85-1.97-8.65c0-2.04,0.39-5.74,1.17-11.1c0.78-5.35,1.17-9.51,1.17-12.48c0-2.97-0.15-5.26-0.44-6.86
		c1.07-0.1,2.07-0.15,2.99-0.15c2.82,0,4.78,0.47,5.88,1.42c1.1,0.95,1.64,2.57,1.64,4.85C302.79,127.66,302.19,131.49,301,138.42z
		 M303.88,114.22c-1.36,0.2-2.56,0.29-3.58,0.29c-5.01,0-7.52-1.75-7.52-5.26c0-1.26,0.37-2.99,1.1-5.18
		c1.36-0.19,2.55-0.29,3.58-0.29c5.01,0,7.52,1.75,7.52,5.26C304.98,110.31,304.61,112.03,303.88,114.22z"/>
	<path class="st0" d="M326.88,163.21c-1.56,0.68-3.19,1.02-4.89,1.02c-1.7,0-2.65-0.37-2.85-1.1c-0.78-3.11-1.68-7.77-2.7-13.98
		c-1.02-6.21-2.06-11.63-3.1-16.28c-1.05-4.65-2.3-8.16-3.76-10.55c2.68-1.26,4.82-1.9,6.42-1.9s2.82,0.37,3.65,1.1
		c0.83,0.73,1.52,2.18,2.08,4.34c0.56,2.17,0.96,3.96,1.2,5.37c0.68,4.67,1.02,7.28,1.02,7.81c0,0.54,0.19,2.71,0.58,6.53
		c0.39,3.82,0.68,6.34,0.88,7.56c8.66-16.79,12.99-28.01,12.99-33.65c3.99,2.04,5.99,4.26,5.99,6.64c0,1.95-1.01,4.83-3.03,8.65
		c-2.02,3.82-4.55,8.44-7.59,13.87C330.74,154.07,328.44,158.92,326.88,163.21z"/>
	<path class="st0" d="M358.71,149.41c0,2.29,0.43,4.15,1.28,5.58c0.85,1.44,2.06,2.15,3.61,2.15c2.29,0,4.46-1.34,6.53-4.02
		c2.07-2.68,3.72-6.11,4.96-10.29c1.24-4.18,1.86-8.16,1.86-11.94c0-3.77-0.15-6.83-0.44-9.16c1.46-0.1,2.48-0.15,3.07-0.15
		c2.48,0,4.35,0.46,5.62,1.39c1.26,0.92,1.9,2.58,1.9,4.96c0,0.92-0.58,4.68-1.75,11.28c-1.17,6.59-1.75,11.88-1.75,15.84
		c0,3.97,0.75,7.48,2.26,10.55c-3.65-0.63-6.33-1.98-8.03-4.05c-1.7-2.07-2.55-5.05-2.55-8.94c0-0.68,0.1-2,0.29-3.94
		c-1.31,4.62-3.65,8.35-7.01,11.17c-3.36,2.82-6.66,4.23-9.89,4.23s-5.84-1.2-7.81-3.61s-2.96-5.83-2.96-10.26
		c0-4.43,0.79-8.72,2.37-12.88c1.58-4.16,3.95-7.69,7.12-10.58c3.16-2.89,6.69-4.34,10.58-4.34c2.24,0,4.53,0.54,6.86,1.61
		c-4.92,1.75-8.83,5.2-11.75,10.33S358.71,144.49,358.71,149.41z"/>
	<path class="st0" d="M435.72,128.9c-0.24,1.75-0.76,4.79-1.53,9.13c-1.66,9.2-2.48,16.01-2.48,20.44c0,4.43,0.34,7.4,1.02,8.91
		c-3.75-0.97-6.33-2.47-7.74-4.49c-1.41-2.02-2.12-4.88-2.12-8.58c0-3.26,0.51-7.73,1.53-13.4c1.02-5.67,1.68-9.5,1.97-11.5
		c-2.53,0.44-5.23,1.29-8.1,2.55c-0.1-1.07-0.15-1.87-0.15-2.41c0-2.58,0.78-4.34,2.34-5.29s3.8-1.45,6.72-1.5
		c0.34-3.65,0.51-6.28,0.51-7.88c0-1.61-0.01-2.94-0.04-4.01c-0.02-1.07-0.04-1.87-0.04-2.41c3.21,0.34,5.55,1.3,7.01,2.88
		c1.46,1.58,2.19,3.83,2.19,6.75c0,1.17-0.12,2.8-0.37,4.89c4.09-0.1,7.08-0.9,8.98-2.41c0.1,0.97,0.15,1.7,0.15,2.19
		c0,2.34-0.41,3.96-1.24,4.85c-0.83,0.9-2.21,1.35-4.16,1.35S436.74,128.95,435.72,128.9z"/>
	<path class="st0" d="M472.44,121.09c1.46-0.1,2.48-0.15,3.07-0.15c2.53,0,4.45,0.46,5.77,1.39c1.31,0.92,1.97,2.63,1.97,5.11
		c0,0.78-0.46,4.2-1.39,10.26c-0.93,6.06-1.39,11.25-1.39,15.59c0,4.33,0.46,8.15,1.39,11.46c-3.65-1.17-6.18-2.82-7.59-4.96
		c-1.41-2.14-2.12-4.79-2.12-7.96c0-1.22,0.27-3.97,0.8-8.25c-1.51,5.55-3.81,10.21-6.9,13.98c-3.09,3.77-6,5.66-8.72,5.66
		c-5.6,0-8.4-4.04-8.4-12.12c0-2.68,0.4-6.41,1.21-11.21c0.8-4.79,1.2-8.43,1.2-10.91c0-2.48-0.34-4.99-1.02-7.52
		c4.04,0,6.97,0.52,8.8,1.57c1.83,1.05,2.74,3.13,2.74,6.24c0,1.66-0.51,4.94-1.53,9.86c-1.02,4.92-1.53,8.61-1.53,11.1
		c0,3.6,0.97,5.4,2.92,5.4c0.97,0,2.09-0.67,3.36-2.01c1.26-1.34,2.48-3.11,3.65-5.33c1.17-2.21,2.15-4.99,2.96-8.32
		c0.8-3.33,1.2-6.72,1.2-10.15C472.87,126.38,472.73,123.47,472.44,121.09z"/>
	<path class="st0" d="M527.26,140.65c1.61-5.5,4.11-10.13,7.52-13.91c3.41-3.77,6.58-5.66,9.53-5.66c2.94,0,5.04,0.89,6.28,2.67
		c1.24,1.78,1.86,4.19,1.86,7.23c0,3.04-0.47,7.31-1.42,12.81c-0.95,5.5-1.42,9.5-1.42,12.01c0,2.51,0.32,4.33,0.95,5.47
		c0.63,1.14,1.7,2.13,3.21,2.96c-0.63,0.05-1.53,0.07-2.7,0.07c-4.09,0-7-0.63-8.72-1.9c-1.73-1.27-2.59-3.48-2.59-6.64
		c0-1.8,0.49-5.32,1.46-10.55c0.97-5.23,1.46-9.14,1.46-11.72c0-3.21-0.97-4.82-2.92-4.82c-1.17,0-2.46,0.66-3.87,1.97
		c-1.41,1.31-2.76,3.1-4.05,5.37c-1.29,2.26-2.37,5.17-3.25,8.72c-0.88,3.55-1.31,7.09-1.31,10.62c0,3.53,0.15,6.14,0.44,7.85
		c-1.56,0.1-2.58,0.15-3.07,0.15c-2.77,0-4.77-0.47-5.99-1.42c-1.22-0.95-1.83-2.47-1.83-4.56c0-2.09,0.41-6.08,1.24-11.97
		c2.63-18.1,3.94-31.85,3.94-41.25c0-4.23-0.29-7.08-0.88-8.54c3.65,0.97,6.14,2.45,7.48,4.42c1.34,1.97,2.01,4.76,2.01,8.36
		c0,2.43-0.47,7.54-1.42,15.33C528.24,131.5,527.6,137.15,527.26,140.65z"/>
	<path class="st0" d="M577.55,120.06c0.53,0,1.03,0.16,1.5,0.47c0.46,0.32,0.69,0.65,0.69,0.99c-4.92,3.41-7.86,8.15-8.83,14.23
		c1.02-2.72,2.27-5.08,3.76-7.08c1.48-2,3.03-3.5,4.64-4.53c3.07-1.9,6.06-2.85,8.98-2.85s5.4,1.44,7.45,4.31
		c2.04,2.87,3.07,6.72,3.07,11.53c0,5.4-1.09,10.37-3.28,14.89c-2.43,5.11-5.89,8.64-10.37,10.58c-2.53,1.12-5.31,1.68-8.32,1.68
		c-4.23,0-7.92-1.64-11.06-4.93c-3.14-3.29-4.71-8.01-4.71-14.16s1.51-11.58,4.53-16.28C568.6,124.24,572.59,121.28,577.55,120.06z
		 M583.76,126.63c-3.16,0-5.99,2.13-8.47,6.39c-2.48,4.26-3.72,8.5-3.72,12.74c0,8.86,2.29,13.29,6.86,13.29
		c3.26,0,5.91-2.13,7.96-6.39c2.04-4.26,3.07-9.04,3.07-14.34C589.45,130.53,587.56,126.63,583.76,126.63z"/>
	<path class="st0" d="M635.15,121.09c2.87,0,4.93,0.89,6.17,2.67c1.24,1.78,1.86,4.19,1.86,7.23c0,3.04-0.47,7.31-1.42,12.81
		c-0.95,5.5-1.42,9.5-1.42,12.01c0,2.51,0.32,4.33,0.95,5.47c0.63,1.14,1.7,2.13,3.21,2.96c-0.63,0.05-1.53,0.07-2.7,0.07
		c-4.09,0-7-0.63-8.72-1.9c-1.73-1.27-2.59-3.48-2.59-6.64c0-1.8,0.49-5.32,1.46-10.55c0.97-5.23,1.46-9.14,1.46-11.72
		c0-3.21-0.97-4.82-2.92-4.82c-1.12,0-2.39,0.66-3.8,1.97c-1.41,1.31-2.77,3.1-4.09,5.37c-1.31,2.26-2.41,5.17-3.29,8.72
		c-0.88,3.55-1.31,7.09-1.31,10.62c0,3.53,0.15,6.14,0.44,7.85c-1.56,0.1-2.58,0.15-3.07,0.15c-2.77,0-4.77-0.49-5.99-1.46
		c-1.22-0.97-1.82-2.58-1.82-4.82c0-0.97,0.51-4.72,1.53-11.24c1.02-6.52,1.53-11.72,1.53-15.59c0-3.87-0.41-7.43-1.24-10.69
		c3.55,1.12,6.03,2.71,7.45,4.78c1.41,2.07,2.12,4.43,2.12,7.08s-0.29,5.73-0.88,9.23c1.61-5.45,4.14-10.07,7.59-13.87
		C629.11,122.98,632.28,121.09,635.15,121.09z"/>
	<path class="st0" d="M675.23,121.82c0.92,0,1.63,0.05,2.12,0.15c1.26,0.24,1.95,1.14,2.04,2.7c-5.31,1.12-9.53,3.99-12.67,8.61
		c-3.14,4.62-4.71,9.44-4.71,14.45c0,5.84,1.78,8.76,5.33,8.76c2.14,0,4.06-1.17,5.77-3.5c3.02-4.23,5.13-10.85,6.35-19.86
		c0.92-7.1,2.65-11.68,5.18-13.72c1.22-1.02,2.72-1.83,4.53-2.41c-0.68,5.16-1.02,9.05-1.02,11.68c0,19.47-2.08,34.09-6.24,43.87
		s-10.94,14.67-20.33,14.67c-3.8,0-6.76-1.01-8.91-3.03c-2.14-2.02-3.21-4.23-3.21-6.64s0.75-4.38,2.26-5.91
		c1.51-1.53,3.63-2.3,6.35-2.3c1.12,0,2.26,0.24,3.43,0.73c-1.85,1.22-2.77,3.09-2.77,5.62c0,1.7,0.51,3.17,1.53,4.42
		c1.02,1.24,2.27,1.86,3.76,1.86c1.48,0,2.79-0.3,3.91-0.91c1.12-0.61,2.26-1.69,3.43-3.25s2.19-3.5,3.07-5.84
		c2-5.4,3.09-12.77,3.29-22.12c-1.41,4.19-3.55,7.54-6.42,10.07c-2.87,2.53-5.79,3.8-8.76,3.8c-3.75,0-6.61-1.42-8.58-4.27
		c-1.97-2.85-2.96-6.48-2.96-10.91c0-5.16,1.24-9.95,3.72-14.38c2.77-5.11,6.62-8.66,11.53-10.66
		C668.97,122.38,671.97,121.82,675.23,121.82z"/>
	<path class="st0" d="M713.48,120.06c0.53,0,1.03,0.16,1.5,0.47c0.46,0.32,0.69,0.65,0.69,0.99c-4.92,3.41-7.86,8.15-8.83,14.23
		c1.02-2.72,2.27-5.08,3.76-7.08c1.48-2,3.03-3.5,4.64-4.53c3.07-1.9,6.06-2.85,8.98-2.85s5.4,1.44,7.45,4.31
		c2.04,2.87,3.07,6.72,3.07,11.53c0,5.4-1.09,10.37-3.28,14.89c-2.43,5.11-5.89,8.64-10.37,10.58c-2.53,1.12-5.31,1.68-8.32,1.68
		c-4.23,0-7.92-1.64-11.06-4.93c-3.14-3.29-4.71-8.01-4.71-14.16s1.51-11.58,4.53-16.28C704.52,124.24,708.51,121.28,713.48,120.06z
		 M719.68,126.63c-3.16,0-5.99,2.13-8.47,6.39c-2.48,4.26-3.72,8.5-3.72,12.74c0,8.86,2.29,13.29,6.86,13.29
		c3.26,0,5.91-2.13,7.96-6.39c2.04-4.26,3.07-9.04,3.07-14.34C725.38,130.53,723.48,126.63,719.68,126.63z"/>
</g>
<g>
	<g>
		<path class="st0" d="M99.98,93.47c1.89-0.51,3.04-0.51,3.69,1.45c1.39,4.19,4.01,7.52,7.55,10.19c2.05,1.55,2.66,3.7,0.47,5.42
			c-8.61,6.78-8.42,15.7-6.78,25.25c2.03,11.89,3.24,23.82,7.48,35.39c2.55,6.95,3.41,14.89,2.62,22.66
			c-0.76,7.47-4.27,11.26-11.49,13.57c-7.4,2.37-14.85,2.09-22.32,1.46c-8.29-0.7-13.8-6.63-14.56-15.21
			c-0.54-6.13,0.27-12.21,0.91-18.31c1.83-17.55,2.81-35.15,2.71-52.79c-0.02-3.11,0.05-5.99,4.48-5.43c-2-0.57-4.01-1.11-6-1.73
			c-3.8-1.17-5.31-4.34-3.21-7.7c2.31-3.71,3.14-7.93,4.85-11.82c0.87-1.99-0.84-3.69-0.82-5.65c0.14-9.58-1.72-18.79-4.81-27.88
			c-2.14-6.3-0.95-8.83,5.12-11.29c10.21-4.15,20.57-4.59,30.66,0.66c4.14,2.15,5.91,5.3,4.78,10.22
			c-1.82,7.94-1.96,16.11-2.29,24.22C102.9,88.93,103.16,91.74,99.98,93.47z"/>
	</g>
	<g>
		<path class="st0" d="M99.75,40.38c-11.98,0-23.96-0.27-35.93,0.06c-18.14,0.5-36.17,1.99-53.15,9.31c-3.42,1.47-6.41,3.3-6.67,7.4
			c-0.27,4.28,2.55,6.83,5.9,8.6c11.67,6.2,24.34,9.19,37.32,10.99c5.77,0.8,11.59,1.19,17.39,1.81c1.15,0.12,2.85-0.11,2.86,1.57
			c0.02,2.07-1.89,1.72-3.13,1.65c-13.67-0.75-27.23-2.3-40.28-6.65c-4.93-1.64-9.93-3.15-14.62-5.54
			c-11.99-6.11-11.67-18.55-3.9-26.94c4.11-4.44,9.2-7.69,14.22-10.91C37.2,20.53,55.19,10.3,74.43,2.39
			c8.07-3.32,15.89-3.14,24.06,0.33c19.24,8.18,37.87,17.53,55.92,28.05c5.17,3.01,10.36,6.02,13.96,11.03
			c6.73,9.36,4.56,19.23-5.33,25.06c-12.66,7.46-26.84,9.26-40.98,11.26c-4.71,0.67-9.43,1.24-14.15,1.74
			c-1.11,0.12-2.79,0.44-2.98-1.27c-0.19-1.69,1.41-1.71,2.59-1.89c10.31-1.54,20.65-2.93,30.94-4.62c8.7-1.43,17-4.14,24.36-9.19
			c3.6-2.47,5.86-5.77,6.04-10.31c0.25-6.45-2.03-9.51-8.4-10.37C140.28,39.5,120,40.5,99.75,40.38z M65.99,31.12
			c4.93-0.04,9.29-2.33,9.27-4.74c-0.03-2.42-4.32-5.37-7.74-5.33c-3.02,0.04-6.03,3.37-5.82,6.54
			C61.88,30.4,63.89,30.98,65.99,31.12z M22,40.78c4.24-0.27,6.87-3.23,9.85-5.57c1.01-0.79,1.77-1.83,1.13-3.18
			c-0.68-1.43-2.05-1.8-3.49-1.64c-4.43,0.5-7.71,2.99-9.95,6.62C18.11,39.36,19.38,40.76,22,40.78z"/>
	</g>
</g>
</svg>
