<?xml version="1.0" encoding="utf-8"?>
<!-- Generator: Adobe Illustrator 23.0.2, SVG Export Plug-In . SVG Version: 6.00 Build 0)  -->
<svg version="1.1" id="Capa_1" xmlns="http://www.w3.org/2000/svg" xmlns:xlink="http://www.w3.org/1999/xlink" x="0px" y="0px"
	 viewBox="0 0 72.48 87.67" style="enable-background:new 0 0 72.48 87.67;" xml:space="preserve">
<style type="text/css">
	.st0{fill:#FFFFFF;}
</style>
<g>
	<path class="st0" d="M31.56,48.42c-0.74,0.2-1.2,0.2-1.45-0.57c-0.55-1.65-1.58-2.96-2.97-4.01c-0.81-0.61-1.05-1.46-0.19-2.13
		c3.39-2.67,3.31-6.18,2.67-9.94c-0.8-4.68-1.27-9.38-2.94-13.93c-1-2.73-1.34-5.86-1.03-8.92c0.3-2.94,1.68-4.43,4.52-5.34
		c2.91-0.93,5.84-0.82,8.79-0.57c3.26,0.28,5.43,2.61,5.73,5.99c0.21,2.41-0.11,4.81-0.36,7.21c-0.72,6.91-1.11,13.83-1.07,20.78
		c0.01,1.22-0.02,2.36-1.76,2.14c0.79,0.23,1.58,0.44,2.36,0.68c1.5,0.46,2.09,1.71,1.26,3.03c-0.91,1.46-1.24,3.12-1.91,4.65
		c-0.34,0.78,0.33,1.45,0.32,2.23c-0.05,3.77,0.68,7.4,1.89,10.97c0.84,2.48,0.37,3.48-2.02,4.45c-4.02,1.63-8.1,1.81-12.07-0.26
		c-1.63-0.85-2.32-2.08-1.88-4.02c0.72-3.13,0.77-6.34,0.9-9.53C30.41,50.21,30.31,49.1,31.56,48.42z"/>
	<path class="st0" d="M31.65,69.32c4.71,0,9.43,0.11,14.14-0.02c7.14-0.2,14.23-0.78,20.92-3.66c1.35-0.58,2.52-1.3,2.63-2.91
		c0.11-1.68-1-2.69-2.32-3.39c-4.6-2.44-9.58-3.62-14.69-4.33c-2.27-0.32-4.56-0.47-6.84-0.71c-0.45-0.05-1.12,0.04-1.13-0.62
		c-0.01-0.81,0.74-0.68,1.23-0.65c5.38,0.29,10.72,0.9,15.86,2.62c1.94,0.65,3.91,1.24,5.75,2.18c4.72,2.41,4.59,7.3,1.54,10.6
		c-1.62,1.75-3.62,3.02-5.6,4.29c-6.87,4.41-13.95,8.44-21.52,11.55c-3.18,1.31-6.25,1.24-9.47-0.13
		c-7.57-3.22-14.9-6.9-22.01-11.04c-2.03-1.19-4.08-2.37-5.49-4.34C2,65.08,2.85,61.19,6.74,58.9c4.98-2.93,10.56-3.65,16.13-4.43
		c1.85-0.26,3.71-0.49,5.57-0.68c0.44-0.05,1.1-0.17,1.17,0.5c0.07,0.67-0.55,0.67-1.02,0.74c-4.06,0.6-8.13,1.15-12.18,1.82
		c-3.42,0.56-6.69,1.63-9.59,3.62c-1.42,0.97-2.31,2.27-2.38,4.06c-0.1,2.54,0.8,3.74,3.31,4.08C15.7,69.66,23.68,69.27,31.65,69.32
		z M44.94,72.96c-1.94,0.02-3.66,0.92-3.65,1.87c0.01,0.95,1.7,2.11,3.05,2.1c1.19-0.02,2.37-1.33,2.29-2.57
		C46.56,73.25,45.76,73.02,44.94,72.96z M62.25,69.16c-1.67,0.11-2.71,1.27-3.88,2.19c-0.4,0.31-0.7,0.72-0.45,1.25
		c0.27,0.56,0.81,0.71,1.37,0.64c1.74-0.2,3.04-1.18,3.91-2.61C63.78,69.72,63.28,69.17,62.25,69.16z"/>
</g>
<g>
</g>
<g>
</g>
<g>
</g>
<g>
</g>
<g>
</g>
<g>
</g>
</svg>
